<?xml version="1.0" encoding="UTF-8"?>
<svg xmlns="http://www.w3.org/2000/svg" width="1080" height="860" viewBox="0 0 1080 860">
<rect width="100%" height="100%" fill="white"/>
<text x="540.00" y="22" text-anchor="middle" font-size="18" font-weight="bold">Laplace timing summary, 9 digits</text>
<text x="50.00" y="34.00" font-size="12" font-weight="bold">MPI ranks</text>
<line x1="130.00" y1="30.00" x2="154.00" y2="30.00" stroke="#1f77b4" stroke-width="2.2"/>
<circle cx="142.00" cy="30.00" r="3.2" fill="#1f77b4"/>
<text x="164.00" y="34.00" font-size="12">1</text>
<line x1="240.00" y1="30.00" x2="264.00" y2="30.00" stroke="#d95f02" stroke-width="2.2"/>
<circle cx="252.00" cy="30.00" r="3.2" fill="#d95f02"/>
<text x="274.00" y="34.00" font-size="12">2</text>
<line x1="350.00" y1="30.00" x2="374.00" y2="30.00" stroke="#2ca02c" stroke-width="2.2"/>
<circle cx="362.00" cy="30.00" r="3.2" fill="#2ca02c"/>
<text x="384.00" y="34.00" font-size="12">4</text>
<rect x="34.00" y="62.00" width="1012.00" height="220.00" fill="white" stroke="#d9d9d9"/>
<text x="540.00" y="74.00" text-anchor="middle" font-size="14" font-weight="bold">pot-only total time</text>
<line x1="92.00" y1="246.00" x2="1028.00" y2="246.00" stroke="#ededed"/>
<text x="84.00" y="250.00" text-anchor="end" font-size="11">0.00</text>
<line x1="92.00" y1="204.50" x2="1028.00" y2="204.50" stroke="#ededed"/>
<text x="84.00" y="208.50" text-anchor="end" font-size="11">5.51</text>
<line x1="92.00" y1="163.00" x2="1028.00" y2="163.00" stroke="#ededed"/>
<text x="84.00" y="167.00" text-anchor="end" font-size="11">11.02</text>
<line x1="92.00" y1="121.50" x2="1028.00" y2="121.50" stroke="#ededed"/>
<text x="84.00" y="125.50" text-anchor="end" font-size="11">16.53</text>
<line x1="92.00" y1="80.00" x2="1028.00" y2="80.00" stroke="#ededed"/>
<text x="84.00" y="84.00" text-anchor="end" font-size="11">22.04</text>
<line x1="92.00" y1="80.00" x2="92.00" y2="246.00" stroke="#444"/>
<line x1="92.00" y1="246.00" x2="1028.00" y2="246.00" stroke="#444"/>
<line x1="92.00" y1="246.00" x2="92.00" y2="251.00" stroke="#444"/>
<text x="92.00" y="264.00" text-anchor="middle" font-size="11">1</text>
<line x1="248.00" y1="246.00" x2="248.00" y2="251.00" stroke="#444"/>
<text x="248.00" y="264.00" text-anchor="middle" font-size="11">2</text>
<line x1="404.00" y1="246.00" x2="404.00" y2="251.00" stroke="#444"/>
<text x="404.00" y="264.00" text-anchor="middle" font-size="11">4</text>
<line x1="560.00" y1="246.00" x2="560.00" y2="251.00" stroke="#444"/>
<text x="560.00" y="264.00" text-anchor="middle" font-size="11">8</text>
<line x1="716.00" y1="246.00" x2="716.00" y2="251.00" stroke="#444"/>
<text x="716.00" y="264.00" text-anchor="middle" font-size="11">16</text>
<line x1="872.00" y1="246.00" x2="872.00" y2="251.00" stroke="#444"/>
<text x="872.00" y="264.00" text-anchor="middle" font-size="11">32</text>
<line x1="1028.00" y1="246.00" x2="1028.00" y2="251.00" stroke="#444"/>
<text x="1028.00" y="264.00" text-anchor="middle" font-size="11">64</text>
<text x="560.00" y="274.00" text-anchor="middle" font-size="12">OMP threads per rank</text>
<text x="48.00" y="172.00" text-anchor="middle" font-size="12" transform="rotate(-90 48.00 172.00)">seconds</text>
<polyline points="92.00,92.30 248.00,166.09 404.00,201.04 560.00,218.03 716.00,226.52 872.00,229.74 1028.00,232.19" fill="none" stroke="#1f77b4" stroke-width="2.2"/>
<circle cx="92.00" cy="92.30" r="3.2" fill="#1f77b4"/>
<circle cx="248.00" cy="166.09" r="3.2" fill="#1f77b4"/>
<circle cx="404.00" cy="201.04" r="3.2" fill="#1f77b4"/>
<circle cx="560.00" cy="218.03" r="3.2" fill="#1f77b4"/>
<circle cx="716.00" cy="226.52" r="3.2" fill="#1f77b4"/>
<circle cx="872.00" cy="229.74" r="3.2" fill="#1f77b4"/>
<circle cx="1028.00" cy="232.19" r="3.2" fill="#1f77b4"/>
<polyline points="92.00,160.54 248.00,199.61 404.00,218.17 560.00,227.24 716.00,231.60 872.00,233.31 1028.00,234.01" fill="none" stroke="#d95f02" stroke-width="2.2"/>
<circle cx="92.00" cy="160.54" r="3.2" fill="#d95f02"/>
<circle cx="248.00" cy="199.61" r="3.2" fill="#d95f02"/>
<circle cx="404.00" cy="218.17" r="3.2" fill="#d95f02"/>
<circle cx="560.00" cy="227.24" r="3.2" fill="#d95f02"/>
<circle cx="716.00" cy="231.60" r="3.2" fill="#d95f02"/>
<circle cx="872.00" cy="233.31" r="3.2" fill="#d95f02"/>
<circle cx="1028.00" cy="234.01" r="3.2" fill="#d95f02"/>
<polyline points="92.00,197.82 248.00,218.94 404.00,228.88 560.00,233.92 716.00,236.14 872.00,237.07 1028.00,237.49" fill="none" stroke="#2ca02c" stroke-width="2.2"/>
<circle cx="92.00" cy="197.82" r="3.2" fill="#2ca02c"/>
<circle cx="248.00" cy="218.94" r="3.2" fill="#2ca02c"/>
<circle cx="404.00" cy="228.88" r="3.2" fill="#2ca02c"/>
<circle cx="560.00" cy="233.92" r="3.2" fill="#2ca02c"/>
<circle cx="716.00" cy="236.14" r="3.2" fill="#2ca02c"/>
<circle cx="872.00" cy="237.07" r="3.2" fill="#2ca02c"/>
<circle cx="1028.00" cy="237.49" r="3.2" fill="#2ca02c"/>
<rect x="34.00" y="316.00" width="1012.00" height="220.00" fill="white" stroke="#d9d9d9"/>
<text x="540.00" y="328.00" text-anchor="middle" font-size="14" font-weight="bold">pot+grad total time</text>
<line x1="92.00" y1="500.00" x2="1028.00" y2="500.00" stroke="#ededed"/>
<text x="84.00" y="504.00" text-anchor="end" font-size="11">0.00</text>
<line x1="92.00" y1="458.50" x2="1028.00" y2="458.50" stroke="#ededed"/>
<text x="84.00" y="462.50" text-anchor="end" font-size="11">8.69</text>
<line x1="92.00" y1="417.00" x2="1028.00" y2="417.00" stroke="#ededed"/>
<text x="84.00" y="421.00" text-anchor="end" font-size="11">17.39</text>
<line x1="92.00" y1="375.50" x2="1028.00" y2="375.50" stroke="#ededed"/>
<text x="84.00" y="379.50" text-anchor="end" font-size="11">26.08</text>
<line x1="92.00" y1="334.00" x2="1028.00" y2="334.00" stroke="#ededed"/>
<text x="84.00" y="338.00" text-anchor="end" font-size="11">34.78</text>
<line x1="92.00" y1="334.00" x2="92.00" y2="500.00" stroke="#444"/>
<line x1="92.00" y1="500.00" x2="1028.00" y2="500.00" stroke="#444"/>
<line x1="92.00" y1="500.00" x2="92.00" y2="505.00" stroke="#444"/>
<text x="92.00" y="518.00" text-anchor="middle" font-size="11">1</text>
<line x1="248.00" y1="500.00" x2="248.00" y2="505.00" stroke="#444"/>
<text x="248.00" y="518.00" text-anchor="middle" font-size="11">2</text>
<line x1="404.00" y1="500.00" x2="404.00" y2="505.00" stroke="#444"/>
<text x="404.00" y="518.00" text-anchor="middle" font-size="11">4</text>
<line x1="560.00" y1="500.00" x2="560.00" y2="505.00" stroke="#444"/>
<text x="560.00" y="518.00" text-anchor="middle" font-size="11">8</text>
<line x1="716.00" y1="500.00" x2="716.00" y2="505.00" stroke="#444"/>
<text x="716.00" y="518.00" text-anchor="middle" font-size="11">16</text>
<line x1="872.00" y1="500.00" x2="872.00" y2="505.00" stroke="#444"/>
<text x="872.00" y="518.00" text-anchor="middle" font-size="11">32</text>
<line x1="1028.00" y1="500.00" x2="1028.00" y2="505.00" stroke="#444"/>
<text x="1028.00" y="518.00" text-anchor="middle" font-size="11">64</text>
<text x="560.00" y="528.00" text-anchor="middle" font-size="12">OMP threads per rank</text>
<text x="48.00" y="426.00" text-anchor="middle" font-size="12" transform="rotate(-90 48.00 426.00)">seconds</text>
<polyline points="92.00,346.30 248.00,420.72 404.00,456.90 560.00,474.81 716.00,483.54 872.00,487.25 1028.00,490.02" fill="none" stroke="#1f77b4" stroke-width="2.2"/>
<circle cx="92.00" cy="346.30" r="3.2" fill="#1f77b4"/>
<circle cx="248.00" cy="420.72" r="3.2" fill="#1f77b4"/>
<circle cx="404.00" cy="456.90" r="3.2" fill="#1f77b4"/>
<circle cx="560.00" cy="474.81" r="3.2" fill="#1f77b4"/>
<circle cx="716.00" cy="483.54" r="3.2" fill="#1f77b4"/>
<circle cx="872.00" cy="487.25" r="3.2" fill="#1f77b4"/>
<circle cx="1028.00" cy="490.02" r="3.2" fill="#1f77b4"/>
<polyline points="92.00,418.01 248.00,456.34 404.00,474.99 560.00,484.36 716.00,488.81 872.00,490.75 1028.00,491.75" fill="none" stroke="#d95f02" stroke-width="2.2"/>
<circle cx="92.00" cy="418.01" r="3.2" fill="#d95f02"/>
<circle cx="248.00" cy="456.34" r="3.2" fill="#d95f02"/>
<circle cx="404.00" cy="474.99" r="3.2" fill="#d95f02"/>
<circle cx="560.00" cy="484.36" r="3.2" fill="#d95f02"/>
<circle cx="716.00" cy="488.81" r="3.2" fill="#d95f02"/>
<circle cx="872.00" cy="490.75" r="3.2" fill="#d95f02"/>
<circle cx="1028.00" cy="491.75" r="3.2" fill="#d95f02"/>
<polyline points="92.00,455.66 248.00,475.73 404.00,485.57 560.00,490.50 716.00,492.89 872.00,493.98 1028.00,494.33" fill="none" stroke="#2ca02c" stroke-width="2.2"/>
<circle cx="92.00" cy="455.66" r="3.2" fill="#2ca02c"/>
<circle cx="248.00" cy="475.73" r="3.2" fill="#2ca02c"/>
<circle cx="404.00" cy="485.57" r="3.2" fill="#2ca02c"/>
<circle cx="560.00" cy="490.50" r="3.2" fill="#2ca02c"/>
<circle cx="716.00" cy="492.89" r="3.2" fill="#2ca02c"/>
<circle cx="872.00" cy="493.98" r="3.2" fill="#2ca02c"/>
<circle cx="1028.00" cy="494.33" r="3.2" fill="#2ca02c"/>
<rect x="34.00" y="570.00" width="1012.00" height="220.00" fill="white" stroke="#d9d9d9"/>
<text x="540.00" y="582.00" text-anchor="middle" font-size="14" font-weight="bold">total overhead</text>
<line x1="92.00" y1="754.00" x2="1028.00" y2="754.00" stroke="#ededed"/>
<text x="84.00" y="758.00" text-anchor="end" font-size="11">0.89</text>
<line x1="92.00" y1="712.50" x2="1028.00" y2="712.50" stroke="#ededed"/>
<text x="84.00" y="716.50" text-anchor="end" font-size="11">1.10</text>
<line x1="92.00" y1="671.00" x2="1028.00" y2="671.00" stroke="#ededed"/>
<text x="84.00" y="675.00" text-anchor="end" font-size="11">1.31</text>
<line x1="92.00" y1="629.50" x2="1028.00" y2="629.50" stroke="#ededed"/>
<text x="84.00" y="633.50" text-anchor="end" font-size="11">1.53</text>
<line x1="92.00" y1="588.00" x2="1028.00" y2="588.00" stroke="#ededed"/>
<text x="84.00" y="592.00" text-anchor="end" font-size="11">1.74</text>
<line x1="92.00" y1="588.00" x2="92.00" y2="754.00" stroke="#444"/>
<line x1="92.00" y1="754.00" x2="1028.00" y2="754.00" stroke="#444"/>
<line x1="92.00" y1="754.00" x2="92.00" y2="759.00" stroke="#444"/>
<text x="92.00" y="772.00" text-anchor="middle" font-size="11">1</text>
<line x1="248.00" y1="754.00" x2="248.00" y2="759.00" stroke="#444"/>
<text x="248.00" y="772.00" text-anchor="middle" font-size="11">2</text>
<line x1="404.00" y1="754.00" x2="404.00" y2="759.00" stroke="#444"/>
<text x="404.00" y="772.00" text-anchor="middle" font-size="11">4</text>
<line x1="560.00" y1="754.00" x2="560.00" y2="759.00" stroke="#444"/>
<text x="560.00" y="772.00" text-anchor="middle" font-size="11">8</text>
<line x1="716.00" y1="754.00" x2="716.00" y2="759.00" stroke="#444"/>
<text x="716.00" y="772.00" text-anchor="middle" font-size="11">16</text>
<line x1="872.00" y1="754.00" x2="872.00" y2="759.00" stroke="#444"/>
<text x="872.00" y="772.00" text-anchor="middle" font-size="11">32</text>
<line x1="1028.00" y1="754.00" x2="1028.00" y2="759.00" stroke="#444"/>
<text x="1028.00" y="772.00" text-anchor="middle" font-size="11">64</text>
<text x="560.00" y="782.00" text-anchor="middle" font-size="12">OMP threads per rank</text>
<text x="48.00" y="680.00" text-anchor="middle" font-size="12" transform="rotate(-90 48.00 680.00)">ratio</text>
<polyline points="92.00,619.12 248.00,621.58 404.00,632.04 560.00,650.04 716.00,667.27 872.00,686.35 1028.00,705.47" fill="none" stroke="#1f77b4" stroke-width="2.2"/>
<circle cx="92.00" cy="619.12" r="3.2" fill="#1f77b4"/>
<circle cx="248.00" cy="621.58" r="3.2" fill="#1f77b4"/>
<circle cx="404.00" cy="632.04" r="3.2" fill="#1f77b4"/>
<circle cx="560.00" cy="650.04" r="3.2" fill="#1f77b4"/>
<circle cx="716.00" cy="667.27" r="3.2" fill="#1f77b4"/>
<circle cx="872.00" cy="686.35" r="3.2" fill="#1f77b4"/>
<circle cx="1028.00" cy="705.47" r="3.2" fill="#1f77b4"/>
<polyline points="92.00,631.76 248.00,637.45 404.00,650.71 560.00,670.79 716.00,688.69 872.00,703.33 1028.00,716.37" fill="none" stroke="#d95f02" stroke-width="2.2"/>
<circle cx="92.00" cy="631.76" r="3.2" fill="#d95f02"/>
<circle cx="248.00" cy="637.45" r="3.2" fill="#d95f02"/>
<circle cx="404.00" cy="650.71" r="3.2" fill="#d95f02"/>
<circle cx="560.00" cy="670.79" r="3.2" fill="#d95f02"/>
<circle cx="716.00" cy="688.69" r="3.2" fill="#d95f02"/>
<circle cx="872.00" cy="703.33" r="3.2" fill="#d95f02"/>
<circle cx="1028.00" cy="716.37" r="3.2" fill="#d95f02"/>
<polyline points="92.00,643.90 248.00,651.19 404.00,667.99 560.00,685.63 716.00,706.04 872.00,720.47 1028.00,722.88" fill="none" stroke="#2ca02c" stroke-width="2.2"/>
<circle cx="92.00" cy="643.90" r="3.2" fill="#2ca02c"/>
<circle cx="248.00" cy="651.19" r="3.2" fill="#2ca02c"/>
<circle cx="404.00" cy="667.99" r="3.2" fill="#2ca02c"/>
<circle cx="560.00" cy="685.63" r="3.2" fill="#2ca02c"/>
<circle cx="716.00" cy="706.04" r="3.2" fill="#2ca02c"/>
<circle cx="872.00" cy="720.47" r="3.2" fill="#2ca02c"/>
<circle cx="1028.00" cy="722.88" r="3.2" fill="#2ca02c"/>
</svg>